{"title":"Hotel.Desire.(2011).BRRip.480p.x264.Ger.AAC.5.1.AMX","uid":7433023,"size":368177179,"categoryP":"video","categoryS":"movies","magnet":"?xt=urn:btih:eee3dc2502ead1664361a6cf28bbb480de8000a0&amp;dn=Hotel.Desire.%282011%29.BRRip.480p.x264.Ger.AAC.5.1.AMX&amp;tr=udp%3A%2F%2Ftracker.openbittorrent.com%3A80&amp;tr=udp%3A%2F%2Fopen.demonii.com%3A1337&amp;tr=udp%3A%2F%2Ftracker.coppersurfer.tk%3A6969&amp;tr=udp%3A%2F%2Fexodus.desync.com%3A6969","seeders":0,"leechers":1,"uploader":"Lawry1494","files":-1,"time":1341995538,"description":"General\nComplete name                            : Hotel.Desire.(2011).BRRip.480p.x264.Ger.AAC.5.1.AMX.mp4\nFormat                                   : MPEG-4\nFormat profile                           : Base Media\nCodec ID                                 : isom\nFile size                                : 351 MiB\nDuration                                 : 39mn 15s\nOverall bit rate mode                    : Variable\nOverall bit rate                         : 1 249 Kbps\n\nVideo\nID                                       : 1\nFormat                                   : AVC\nFormat/Info                              : Advanced Video Codec\nFormat profile                           : &lt;a class=&quot;__cf_email__&quot; href=&quot;/cdn-cgi/l/email-protection&quot; data-cfemail=&quot;99d1f0fef1d9d5aab7a9&quot;&gt;[email&amp;#160;protected]&lt;/a&gt;&lt;script cf-hash='f9e31' type=&quot;text/javascript&quot;&gt;\n/* &lt;![CDATA[ */!function(){try{var t=&quot;currentScript&quot;in document?document.currentScript:function(){for(var t=document.getElementsByTagName(&quot;script&quot;),e=t.length;e--;)if(t[e].getAttribute(&quot;cf-hash&quot;))return t[e]}();if(t&amp;&amp;t.previousSibling){var e,r,n,i,c=t.previousSibling,a=c.getAttribute(&quot;data-cfemail&quot;);if(a){for(e=&quot;&quot;,r=parseInt(a.substr(0,2),16),n=2;a.length-n;n+=2)i=parseInt(a.substr(n,2),16)^r,e+=String.fromCharCode(i);e=document.createTextNode(e),c.parentNode.replaceChild(e,c)}}}catch(u){}}();/* ]]&gt; */&lt;/script&gt;\nFormat settings, CABAC                   : Yes\nFormat settings, ReFrames                : 8 frames\nCodec ID                                 : avc1\nCodec ID/Info                            : Advanced Video Coding\nDuration                                 : 39mn 15s\nBit rate                                 : 918 Kbps\nMaximum bit rate                         : 5 278 Kbps\nWidth                                    : 720 pixels\nHeight                                   : 304 pixels\nDisplay aspect ratio                     : 2.35:1\nFrame rate mode                          : Constant\nFrame rate                               : 23.976 fps\nColor space                              : YUV\nChroma subsampling                       : 4:2:0\nBit depth                                : 8 bits\nScan type                                : Progressive\nBits/(Pixel*Frame)                       : 0.175\nStream size                              : 258 MiB (73%)\nWriting library                          : x264 core 125 r2200 999b753\n\nAudio\nID                                       : 2\nFormat                                   : AAC\nFormat/Info                              : Advanced Audio Codec\nFormat profile                           : LC\nCodec ID                                 : 40\nDuration                                 : 39mn 15s\nBit rate mode                            : Variable\nBit rate                                 : 327 Kbps\nMaximum bit rate                         : 394 Kbps\nChannel(s)                               : 6 channels\nChannel positions                        : Front: L C R, Side: L R, LFE\nSampling rate                            : 48.0 KHz\nCompression mode                         : Lossy\nStream size                              : 91.8 MiB (26%)\nLanguage                                 : German\n","torrent":{"xt":"urn:btih:eee3dc2502ead1664361a6cf28bbb480de8000a0","amp;dn":"Hotel.Desire.%282011%29.BRRip.480p.x264.Ger.AAC.5.1.AMX","amp;tr":["udp%3A%2F%2Ftracker.openbittorrent.com%3A80","udp%3A%2F%2Fopen.demonii.com%3A1337","udp%3A%2F%2Ftracker.coppersurfer.tk%3A6969","udp%3A%2F%2Fexodus.desync.com%3A6969"],"infoHash":"eee3dc2502ead1664361a6cf28bbb480de8000a0","infoHashBuffer":{"type":"Buffer","data":[238,227,220,37,2,234,209,102,67,97,166,207,40,187,180,128,222,128,0,160]},"announce":[],"urlList":[]}}